<svg viewBox="0 0 22 22" xmlns="http://www.w3.org/2000/svg">
  <path fill-rule="evenodd" clip-rule="evenodd" d="M16.0015 6C16.0015 8.76142 13.7623 11 11 11C8.23777 11 5.99851 8.76142 5.99851 6C5.99851 3.23858 8.23777 1 11 1C13.7623 1 16.0015 3.23858 16.0015 6ZM14.001 5.99999C14.001 4.34314 12.6575 2.99999 11.0001 2.99999C9.34275 2.99999 7.99919 4.34314 7.99919 5.99999C7.99919 7.65684 9.34275 8.99999 11.0001 8.99999C12.6575 8.99999 14.001 7.65684 14.001 5.99999ZM20.893 19.55L19.0024 15.76C18.1545 14.0683 16.4239 13.0001 14.5311 13H7.46893C5.57614 13.0001 3.84555 14.0683 2.99758 15.76L1.10701 19.55C0.950991 19.8595 0.966419 20.2277 1.14778 20.5231C1.32915 20.8185 1.65058 20.9989 1.99728 21H20.0027C20.3494 20.9989 20.6709 20.8185 20.8522 20.5231C21.0336 20.2277 21.049 19.8595 20.893 19.55ZM4.78818 16.66L3.61782 19H18.3823L17.2119 16.66C16.7046 15.644 15.667 15.0015 14.5311 15H7.46899C6.33315 15.0015 5.29552 15.644 4.78818 16.66Z" fill="currentColor"/>
</svg>