<svg viewBox="0 0 10 16" xmlns="http://www.w3.org/2000/svg">
  <path fill="currentColor" d="M8.93468 14.463C9.01039 14.5381 9.05298 14.6403 9.05298 14.747C9.05298 14.8536 9.01039 14.9558 8.93468 15.0309L8.08681 15.8788C8.01423 15.9561 7.9129 16 7.80685 16C7.7008 16 7.59947 15.9561 7.52689 15.8788L0.176008 8.52792C0.0634705 8.41552 0.000175199 8.26303 3.50226e-05 8.10398L3.50407e-05 7.89602C0.000175245 7.73696 0.0634706 7.58448 0.176008 7.47208L7.52689 0.121197C7.59947 0.043866 7.7008 -1.18212e-07 7.80685 -1.0894e-07C7.9129 -9.96687e-08 8.01423 0.0438661 8.08681 0.121197L8.93468 0.969068C9.01039 1.04416 9.05298 1.14639 9.05298 1.25303C9.05298 1.35966 9.01039 1.46189 8.93468 1.53698L2.47166 8L8.93468 14.463Z"/>
</svg>