<svg viewBox="0 0 22 17" xmlns="http://www.w3.org/2000/svg">
  <path d="M1.62774 2.87494L20.3709 2.87494C20.7158 2.87494 20.9955 2.45491 20.9953 1.93747C20.9951 1.41995 20.715 1 20.3702 1L1.62701 1C1.28213 1 1.00242 1.42003 1.00262 1.93747C1.00282 2.45491 1.28291 2.87494 1.62774 2.87494Z" fill="currentColor"/>
  <path d="M20.3705 7.5625L1.62732 7.5625C1.28243 7.5625 1.00273 7.98253 1.00293 8.49997C1.00313 9.0174 1.28321 9.43743 1.62805 9.43743L20.3712 9.43743C20.7161 9.43743 20.9958 9.01741 20.9956 8.49997C20.9954 7.98253 20.7153 7.5625 20.3705 7.5625Z" fill="currentColor"/>
  <path d="M20.3702 14.125L7.87499 14.125C7.53011 14.125 7.2504 14.545 7.25059 15.0625C7.25078 15.58 7.53085 15.9999 7.87568 15.9999L20.3709 15.9999C20.7158 15.9999 20.9955 15.5799 20.9953 15.0625C20.9952 14.545 20.7151 14.125 20.3702 14.125Z" fill="currentColor"/>
</svg>