<svg viewBox="0 0 12 13" xmlns="http://www.w3.org/2000/svg">
  <path fill-rule="evenodd" clip-rule="evenodd" d="M0 6.85696C0 3.50859 2.68629 0.794189 6 0.794189C7.5913 0.794189 9.11742 1.43294 10.2426 2.56994C11.3679 3.70693 12 5.24902 12 6.85696C12 10.2053 9.31371 12.9197 6 12.9197C2.68629 12.9197 0 10.2053 0 6.85696ZM7.94492 8.19685C7.94492 8.11647 7.91201 8.03967 7.854 7.98466L6.74401 6.85699L7.854 5.72933C7.91201 5.67432 7.94492 5.59752 7.94492 5.51713C7.94492 5.43675 7.91201 5.35995 7.854 5.30494L7.53601 4.98362C7.48157 4.925 7.40556 4.89175 7.32601 4.89175C7.24646 4.89175 7.17045 4.925 7.11601 4.98362L6.00002 6.10522L4.88402 4.98362C4.82958 4.925 4.75357 4.89175 4.67402 4.89175C4.59447 4.89175 4.51846 4.925 4.46402 4.98362L4.14603 5.30494C4.08802 5.35995 4.05511 5.43675 4.05511 5.51713C4.05511 5.59752 4.08802 5.67432 4.14603 5.72933L5.25602 6.85699L4.14603 7.98466C4.08802 8.03967 4.05511 8.11647 4.05511 8.19685C4.05511 8.27724 4.08802 8.35404 4.14603 8.40905L4.46402 8.73037C4.51846 8.78899 4.59447 8.82224 4.67402 8.82224C4.75357 8.82224 4.82958 8.78899 4.88402 8.73037L6.00002 7.60877L7.11601 8.73037C7.17045 8.78899 7.24646 8.82224 7.32601 8.82224C7.40556 8.82224 7.48157 8.78899 7.53601 8.73037L7.854 8.40905C7.91201 8.35404 7.94492 8.27724 7.94492 8.19685Z" fill="currentColor"/>
</svg>