<svg viewBox="0 0 20 20" xmlns="http://www.w3.org/2000/svg">
  <path fill-rule="evenodd" clip-rule="evenodd" d="M3 17H8.5C8.77614 17 9 17.2239 9 17.5V18.5C9 18.7761 8.77614 19 8.5 19H3C1.89543 19 1 18.1046 1 17V3C1 1.89543 1.89543 1 3 1H8.5C8.77614 1 9 1.22386 9 1.5V2.5C9 2.77614 8.77614 3 8.5 3H3V17ZM13.64 4.15L18.78 9.28C18.9189 9.42172 18.9977 9.61159 19 9.81V10.19C18.9998 10.3888 18.9207 10.5795 18.78 10.72L13.64 15.85C13.5461 15.9447 13.4183 15.9979 13.285 15.9979C13.1517 15.9979 13.0239 15.9447 12.93 15.85L12.22 15.15C12.1253 15.0561 12.0721 14.9283 12.0721 14.795C12.0721 14.6617 12.1253 14.5339 12.22 14.44L15.67 11H5.5C5.22386 11 5 10.7761 5 10.5V9.5C5 9.22386 5.22386 9 5.5 9H15.67L12.22 5.56C12.1259 5.46784 12.0729 5.34169 12.0729 5.21C12.0729 5.07831 12.1259 4.95216 12.22 4.86L12.93 4.15C13.0239 4.05534 13.1517 4.0021 13.285 4.0021C13.4183 4.0021 13.5461 4.05534 13.64 4.15Z" fill="currentColor"/>
</svg>