<svg viewBox="0 0 18 18" fill="none" xmlns="http://www.w3.org/2000/svg">
  <path d="M9 0.886475C9.18332 0.886475 9.34783 0.994733 9.4209 1.16479L11.4746 5.97144L11.5918 6.24585L11.8887 6.27319L17.085 6.74487C17.2662 6.76127 17.4207 6.88393 17.4775 7.05835C17.5345 7.23405 17.4812 7.424 17.3438 7.54468L13.416 10.989L13.1924 11.1853L13.2588 11.4763L14.416 16.5759C14.4518 16.7341 14.4029 16.8952 14.291 17.0046L14.2393 17.0486C14.1093 17.1427 13.9419 17.1611 13.7969 17.1013L13.7363 17.071L9.25684 14.3923L9 14.239L8.74316 14.3923L4.2627 17.071C4.19034 17.1143 4.10987 17.1354 4.0293 17.1355C3.93501 17.1355 3.84138 17.1074 3.76172 17.0496L3.76074 17.0486L3.70898 17.0046C3.59712 16.8952 3.54824 16.7341 3.58398 16.5759L3.58301 16.575L4.74121 11.4763L4.80762 11.1853L4.58398 10.989L0.65625 7.54468C0.518906 7.42422 0.465936 7.23398 0.522461 7.05933C0.579966 6.88445 0.734493 6.76162 0.916016 6.74487L0.915039 6.7439L6.1123 6.27319L6.40918 6.24585L6.52637 5.97144L8.58008 1.16382C8.65213 0.994895 8.81634 0.886484 9 0.886475Z" 
        stroke="currentColor" 
        stroke-width="1.5" 
        stroke-linecap="round" 
        stroke-linejoin="round"/>
</svg>